<svg xmlns="http://www.w3.org/2000/svg" viewBox="0 0 607 607">
  <g fill="#C5C5C5">
    <path d="M295.13,354.51h-18.61v71.66c.8,12.14-3.33,23.74-11.66,32.62-8.67,9.24-21.1,14.56-34.08,14.56h-49.73c-15.24,0-27.66,12.46-27.66,27.8v47.37h18.61v-47.42c0-5.05,4.09-9.14,9.14-9.14h49.52c18.16,0,35.57-7.45,47.76-20.49,11.9-12.7,17.84-29.27,16.72-46.04v-70.92h-.01Z"/>
    <path d="M434.73,473.53v-.17h-49.33c-25.8,0-47.91-20.73-51.6-48.28v-69.84h-18.61v70.93l.09,1.18c4.6,37.26,34.56,65.34,69.65,65.34h50.04c5,0,9.08,4.08,9.08,9.14v47.41h18.61v-47.79c0-15.41-12.54-27.92-27.92-27.92h0Z"/>
    <path d="M103.3,321.78c.17,20.59,17.03,37.58,37.73,37.92h75.95v-19.33h-75.84c-10.15-.15-18.43-8.53-18.51-18.54v-10.29c0-18.47-14.97-33.44-33.44-33.44h-39.14v19.33h39.14c7.8,0,14.12,6.32,14.12,14.12v10.24h-.01Z"/>
    <path d="M388.51,433.97c-8.45,0-15.35-6.87-15.35-15.38l-.32-87.38h0l-.05-14.62-19.67.31v101.98c.21,7.17,4.04,18.84,10.22,24.45,10.3,9.36,25.02,10.68,25.02,10.68h55.42c21.89,0,39.63,17.74,39.63,39.63v9.05h19.33v-9.51c0-32.5-26.43-58.96-58.96-58.96"/>
    <path d="M222.19,433.97c8.45,0,15.35-6.87,15.35-15.38l.32-87.38h0l.05-14.62,19.67.31v101.98c-.21,7.17-4.04,18.84-10.22,24.45-10.3,9.36-25.02,10.68-25.02,10.68h-55.42c-21.89,0-39.63,17.74-39.63,39.63v9.05h-19.33v-9.51c0-32.5,26.43-58.96,58.96-58.96"/>
    <rect x="74.64" y="483.37" width="19.33" height="19.33"/>
    <rect x="50.04" y="317.97" width="19.33" height="19.33"/>
    <rect x="545.69" y="529.19" width="19.33" height="19.33"/>
    <path d="M97.9,382.63c-18.33,0-33.26,14.83-33.44,33.12v9.95c-.06,9.88-7.96,18.36-17.09,18.5H6.61v19.33h40.93c19.84-.34,36.11-17.27,36.25-37.77v-9.68c0-7.8,6.32-14.12,14.12-14.12h119.08v-19.33h-119.09Z"/>
    <path d="M236.25,190.96c-9.23,0-16.73-7.59-16.73-16.92s7.51-16.92,16.73-16.92,16.73,7.59,16.73,16.92-7.51,16.92-16.73,16.92ZM236.25,169.11c-2.61,0-4.73,2.21-4.73,4.92s2.12,4.92,4.73,4.92,4.73-2.21,4.73-4.92-2.12-4.92-4.73-4.92Z"/>
    <path d="M229.7,171.39c-2.6,0-4.99-1.7-5.76-4.31-2.09-7.14-12.56-6.6-13-6.57-3.3.2-6.15-2.31-6.36-5.6s2.26-6.14,5.55-6.37c7.6-.53,21.48,2.06,25.33,15.17.93,3.18-.89,6.51-4.07,7.45-.56.17-1.13.24-1.69.24h0Z"/>
    <path d="M206.78,192.9c-.88,0-1.77-.19-2.61-.6-2.97-1.44-4.22-5-2.79-7.98.22-.46,2.27-4.61,6.1-8.44,5.68-5.69,12.62-7.91,19.55-6.23,3.22.78,5.2,4.02,4.42,7.24s-4.02,5.2-7.24,4.42c-7.02-1.7-11.97,8.13-12.02,8.23-1.05,2.12-3.18,3.36-5.4,3.36h-.01Z"/>
    <path d="M232.47,212.43c-1.94,0-3.84-.94-4.99-2.68-.28-.42-2.79-4.31-4.13-9.58-2.01-7.89-.49-14.85,4.42-20.13,2.25-2.43,6.05-2.57,8.48-.31s2.57,6.05.31,8.48c-5.08,5.47.89,14.85.95,14.94,1.79,2.77,1.02,6.49-1.74,8.29-1.02.67-2.16.98-3.29.98h0Z"/>
    <path d="M260.48,199.62c-7.82,0-19.9-3.15-23.44-15.23-.93-3.18.89-6.51,4.07-7.45,3.18-.93,6.51.89,7.45,4.07,2.09,7.14,12.56,6.6,13,6.57,3.3-.2,6.15,2.31,6.36,5.6.21,3.29-2.26,6.14-5.55,6.37-.59.04-1.22.06-1.88.06h0Z"/>
    <path d="M250,178.99c-1.5,0-3.01-.18-4.52-.55-3.22-.78-5.2-4.02-4.42-7.24s4.03-5.2,7.24-4.42c7.03,1.71,11.97-8.13,12.02-8.23,1.46-2.96,5.05-4.2,8.01-2.76,2.97,1.44,4.22,5,2.79,7.98-.22.46-2.27,4.61-6.1,8.44-4.44,4.45-9.66,6.78-15.03,6.78h0Z"/>
    <path d="M240.34,169.94c-1.46,0-2.93-.53-4.08-1.6-2.43-2.26-2.57-6.05-.31-8.48,5.08-5.47-.89-14.85-.95-14.94-1.79-2.77-1.02-6.49,1.74-8.29,2.76-1.81,6.46-1.06,8.28,1.7.28.43,2.79,4.31,4.13,9.58,2.01,7.89.49,14.85-4.42,20.13-1.18,1.27-2.79,1.92-4.4,1.92v-.02h0Z"/>
    <path d="M236.25,232.82c-31.94,0-57.92-26.37-57.92-58.78s25.98-58.78,57.92-58.78,57.92,26.37,57.92,58.78-25.98,58.78-57.92,58.78h0ZM236.25,133.26c-22.01,0-39.92,18.29-39.92,40.78s17.91,40.78,39.92,40.78,39.92-18.29,39.92-40.78-17.91-40.78-39.92-40.78h0Z"/>
    <path d="M367.53,190.96c-9.23,0-16.73-7.59-16.73-16.92s7.51-16.92,16.73-16.92,16.73,7.59,16.73,16.92-7.51,16.92-16.73,16.92ZM367.53,169.11c-2.61,0-4.73,2.21-4.73,4.92s2.12,4.92,4.73,4.92,4.73-2.21,4.73-4.92-2.12-4.92-4.73-4.92Z"/>
    <path d="M360.99,171.39c-2.59,0-4.99-1.7-5.75-4.31-2.09-7.13-12.56-6.6-13-6.57-3.31.21-6.15-2.31-6.36-5.6s2.26-6.14,5.55-6.37c7.59-.53,21.48,2.06,25.33,15.17.93,3.18-.89,6.51-4.07,7.45-.56.17-1.13.24-1.69.24h0Z"/>
    <path d="M338.06,192.9c-.88,0-1.77-.19-2.61-.6-2.97-1.45-4.22-5-2.79-7.98.22-.46,2.27-4.61,6.1-8.44,5.68-5.69,12.62-7.91,19.55-6.23,3.22.78,5.2,4.02,4.42,7.24s-4.03,5.2-7.24,4.42c-7.04-1.71-11.97,8.13-12.02,8.23-1.05,2.12-3.18,3.36-5.4,3.36h-.01Z"/>
    <path d="M363.75,212.43c-1.94,0-3.84-.94-4.99-2.68-.28-.42-2.79-4.31-4.13-9.58-2.01-7.89-.49-14.85,4.42-20.13,2.25-2.43,6.05-2.57,8.48-.31,2.43,2.26,2.57,6.05.31,8.48-5.08,5.47.89,14.85.95,14.94,1.79,2.77,1.02,6.49-1.74,8.29-1.02.67-2.16.98-3.29.98h-.01Z"/>
    <path d="M391.76,199.62c-7.82,0-19.9-3.15-23.44-15.23-.93-3.18.89-6.51,4.07-7.45,3.18-.93,6.51.89,7.45,4.07,2.09,7.14,12.56,6.6,13,6.57,3.31-.19,6.15,2.31,6.36,5.6.21,3.29-2.26,6.14-5.55,6.37-.59.04-1.22.06-1.89.06h0Z"/>
    <path d="M381.28,178.99c-1.5,0-3.01-.18-4.52-.55-3.22-.78-5.2-4.02-4.42-7.24s4.03-5.2,7.24-4.42c7.02,1.7,11.97-8.13,12.02-8.23,1.46-2.96,5.04-4.2,8.01-2.76s4.22,5,2.79,7.98c-.22.46-2.27,4.61-6.1,8.44-4.44,4.45-9.66,6.78-15.03,6.78h.01Z"/>
    <path d="M371.63,169.94c-1.46,0-2.93-.53-4.08-1.6-2.43-2.26-2.57-6.05-.31-8.48,5.08-5.47-.89-14.85-.95-14.94-1.79-2.77-1.02-6.49,1.74-8.29,2.76-1.81,6.46-1.06,8.28,1.7.28.43,2.79,4.31,4.13,9.58,2.01,7.89.49,14.85-4.42,20.13-1.18,1.27-2.79,1.92-4.4,1.92v-.02h.01Z"/>
    <path d="M367.53,232.82c-31.94,0-57.92-26.37-57.92-58.78s25.98-58.78,57.92-58.78,57.92,26.37,57.92,58.78-25.98,58.78-57.92,58.78h0ZM367.53,133.26c-22.01,0-39.92,18.29-39.92,40.78s17.91,40.78,39.92,40.78,39.92-18.29,39.92-40.78-17.91-40.78-39.92-40.78h0Z"/>
    <path d="M452.88,256.66H158.45c-9.76,0-17.71-7.94-17.71-17.71V109.11c0-9.76,7.94-17.71,17.71-17.71h294.43c9.76,0,17.71,7.94,17.71,17.71v129.84c0,9.76-7.94,17.71-17.71,17.71h0ZM158.74,238.66h293.84V109.42H158.74v129.26h0v-.02h0Z"/>
    <path d="M369.21,290.35h-127.72c-11.38,0-20.63-9.25-20.63-20.63v-22.05c0-4.97,4.03-9,9-9h150.98c4.97,0,9,4.03,9,9v22.05c0,11.38-9.25,20.63-20.63,20.63h0ZM238.86,256.66v13.05c0,1.45,1.18,2.63,2.63,2.63h127.72c1.45,0,2.63-1.18,2.63-2.63v-13.05h-132.98Z"/>
    <rect x="140.12" y="57.76" width="18" height="223.91"/>
    <path d="M501.42,321.78c-.17,20.59-17.03,37.58-37.73,37.92h-69.97v-19.33h69.86c10.15-.15,18.43-8.53,18.51-18.54v-10.29c0-18.47,14.97-33.44,33.44-33.44h39.14v19.33h-39.14c-7.8,0-14.12,6.32-14.12,14.12v10.24h0Z"/>
    <rect x="573.03" y="278.09" width="19.33" height="19.33"/>
    <path d="M509.52,382.63c18.33,0,33.26,14.83,33.44,33.12v9.95c.06,9.88,7.96,18.36,17.09,18.5l36.37-.1h3.97v19.43h-40.52c-19.84-.34-36.11-17.27-36.25-37.77v-9.68c0-7.8-6.32-14.12-14.12-14.12h-115.79v-19.33h115.81Z"/>
  </g>
</svg>
