<?xml version="1.0" encoding="UTF-8"?>
<svg id="Layer_1" xmlns="http://www.w3.org/2000/svg" version="1.1" viewBox="0 0 567 567">
  <!-- Generator: Adobe Illustrator 30.1.0, SVG Export Plug-In . SVG Version: 2.1.1 Build 136)  -->
  <defs>
    <style>
      .st0 {
        fill: #010101;
      }
    </style>
  </defs>
  <g>
    <path class="st0" d="M205.85,210.49c-10.16,0-18.42-8.36-18.42-18.64s8.26-18.64,18.42-18.64,18.42,8.36,18.42,18.64-8.26,18.64-18.42,18.64ZM205.85,185.22c-3.54,0-6.42,2.98-6.42,6.64s2.88,6.64,6.42,6.64,6.42-2.98,6.42-6.64-2.88-6.64-6.42-6.64Z"/>
    <path class="st0" d="M198.27,187.84c-2.6,0-4.99-1.7-5.76-4.31-.39-1.32-1.57-5.36-8.2-7.32-3.99-1.18-7.77-.97-7.81-.96-3.31.19-6.15-2.3-6.37-5.6s2.26-6.15,5.55-6.38c.57-.04,5.74-.34,11.6,1.31,8.68,2.44,14.47,7.82,16.74,15.57.93,3.18-.89,6.51-4.07,7.45-.56.17-1.13.24-1.69.24h0Z"/>
    <path class="st0" d="M171.74,212.74c-.88,0-1.77-.19-2.61-.6-2.97-1.44-4.22-5.01-2.79-7.98.25-.52,2.56-5.19,6.87-9.51,6.43-6.44,13.94-8.84,21.73-6.96,3.22.78,5.2,4.02,4.42,7.24s-4.02,5.2-7.24,4.42c-8.88-2.15-14.92,9.91-14.98,10.03-1.04,2.13-3.18,3.37-5.4,3.37h0Z"/>
    <path class="st0" d="M201.48,235.34c-1.94,0-3.84-.94-5-2.68-.32-.48-3.13-4.84-4.65-10.8-2.25-8.8-.56-16.55,4.89-22.41,2.26-2.43,6.05-2.57,8.48-.31,2.43,2.26,2.57,6.05.31,8.48-6.39,6.88.92,18.33,1,18.44,1.8,2.77,1.03,6.49-1.74,8.3-1.02.67-2.16.99-3.29.99h0Z"/>
    <path class="st0" d="M234.38,220.48c-2.08,0-5.85-.2-9.97-1.35-8.68-2.44-14.47-7.82-16.74-15.57-.93-3.18.89-6.51,4.07-7.45,3.18-.93,6.51.89,7.45,4.07.39,1.32,1.57,5.36,8.2,7.32,3.99,1.18,7.77.97,7.81.96,3.3-.2,6.15,2.3,6.37,5.6s-2.26,6.15-5.55,6.38c-.17,0-.75.05-1.63.05h0Z"/>
    <path class="st0" d="M221.88,196.65c-1.69,0-3.4-.21-5.12-.62-3.22-.78-5.2-4.02-4.42-7.24s4.02-5.2,7.24-4.42c8.89,2.16,14.92-9.91,14.98-10.03,1.46-2.97,5.04-4.21,8.01-2.76,2.97,1.44,4.22,5.01,2.79,7.98-.25.52-2.56,5.19-6.87,9.51-5,5.01-10.67,7.58-16.61,7.58Z"/>
    <path class="st0" d="M210.59,186.17c-1.46,0-2.93-.53-4.08-1.6-2.43-2.26-2.57-6.05-.31-8.48,6.39-6.88-.92-18.33-1-18.44-1.8-2.77-1.03-6.49,1.74-8.3,2.76-1.81,6.46-1.06,8.29,1.7.32.48,3.13,4.85,4.65,10.8,2.25,8.8.56,16.55-4.89,22.41-1.18,1.27-2.79,1.92-4.4,1.92h0Z"/>
    <path class="st0" d="M205.85,258.46c-36.18,0-65.61-29.88-65.61-66.6s29.43-66.6,65.61-66.6,65.61,29.88,65.61,66.6-29.43,66.6-65.61,66.6h0ZM205.85,143.25c-26.25,0-47.61,21.8-47.61,48.6s21.36,48.6,47.61,48.6,47.61-21.8,47.61-48.6-21.36-48.6-47.61-48.6Z"/>
  </g>
  <g>
    <path class="st0" d="M361.14,211.71c-10.16,0-18.42-8.36-18.42-18.64s8.26-18.64,18.42-18.64,18.42,8.36,18.42,18.64-8.26,18.64-18.42,18.64ZM361.14,186.43c-3.54,0-6.42,2.98-6.42,6.64s2.88,6.64,6.42,6.64,6.42-2.98,6.42-6.64-2.88-6.64-6.42-6.64Z"/>
    <path class="st0" d="M353.58,189.06c-2.59,0-4.99-1.7-5.75-4.31-.39-1.33-1.57-5.36-8.2-7.32-3.99-1.18-7.77-.97-7.81-.96-3.32.19-6.15-2.3-6.37-5.6s2.26-6.15,5.55-6.38c.57-.04,5.73-.34,11.6,1.31,8.68,2.44,14.47,7.82,16.74,15.57.93,3.18-.89,6.51-4.07,7.45-.56.17-1.13.24-1.69.24h0Z"/>
    <path class="st0" d="M327.05,213.96c-.88,0-1.77-.19-2.61-.6-2.97-1.44-4.22-5.01-2.79-7.98.25-.52,2.56-5.19,6.87-9.51,6.42-6.44,13.94-8.85,21.73-6.96,3.22.78,5.2,4.02,4.42,7.24s-4.02,5.2-7.24,4.42c-8.88-2.16-14.92,9.91-14.98,10.03-1.04,2.13-3.18,3.37-5.4,3.37h0Z"/>
    <path class="st0" d="M356.77,236.56c-1.94,0-3.84-.94-5-2.68-.32-.48-3.13-4.85-4.65-10.8-2.25-8.8-.56-16.55,4.89-22.41,2.25-2.43,6.05-2.57,8.48-.31,2.43,2.26,2.57,6.05.31,8.48-6.39,6.88.92,18.33,1,18.44,1.8,2.77,1.03,6.49-1.74,8.3-1.02.67-2.16.99-3.29.99h0Z"/>
    <path class="st0" d="M389.67,221.7c-2.08,0-5.85-.2-9.97-1.35-8.68-2.44-14.47-7.82-16.74-15.57-.93-3.18.89-6.51,4.07-7.45,3.18-.93,6.51.89,7.45,4.07.39,1.32,1.57,5.36,8.2,7.32,3.99,1.18,7.77.97,7.81.96,3.3-.2,6.15,2.3,6.37,5.6s-2.26,6.15-5.55,6.38c-.17,0-.75.05-1.63.05h-.01Z"/>
    <path class="st0" d="M377.17,197.86c-1.69,0-3.4-.21-5.12-.62-3.22-.78-5.2-4.02-4.42-7.24s4.02-5.2,7.24-4.42c8.88,2.16,14.92-9.91,14.98-10.03,1.46-2.97,5.04-4.21,8.01-2.76,2.97,1.44,4.22,5.01,2.79,7.98-.25.52-2.56,5.19-6.87,9.51-5,5.01-10.67,7.58-16.61,7.58h0Z"/>
    <path class="st0" d="M365.89,187.39c-1.46,0-2.93-.53-4.08-1.6-2.43-2.26-2.57-6.05-.31-8.48,6.39-6.88-.92-18.33-1-18.44-1.8-2.77-1.03-6.49,1.74-8.3,2.76-1.81,6.46-1.06,8.29,1.7.32.48,3.14,4.84,4.66,10.8,2.25,8.8.56,16.55-4.89,22.41-1.18,1.27-2.79,1.92-4.4,1.92h-.01Z"/>
    <path class="st0" d="M361.14,259.68c-36.18,0-65.61-29.88-65.61-66.6s29.43-66.6,65.61-66.6,65.61,29.88,65.61,66.6-29.43,66.6-65.61,66.6h0ZM361.14,144.47c-26.25,0-47.61,21.8-47.61,48.6s21.36,48.6,47.61,48.6,47.61-21.8,47.61-48.6-21.36-48.6-47.61-48.6Z"/>
  </g>
  <g>
    <path class="st0" d="M450.89,294.18H116.11c-9.76,0-17.71-7.94-17.71-17.71V108.45c0-9.76,7.94-17.71,17.71-17.71h334.79c9.76,0,17.71,7.94,17.71,17.71v168.02c0,9.76-7.94,17.71-17.71,17.71h0ZM116.4,276.18h334.2V108.74H116.4v167.44Z"/>
    <path class="st0" d="M363.52,353.12h-177.95c-10.58,0-19.19-9.25-19.19-20.63v-47.31h18v47.31c0,1.68.91,2.59,1.18,2.63h177.96c.28-.04,1.19-.95,1.19-2.63v-47.31h18v47.31c0,11.38-8.61,20.63-19.19,20.63Z"/>
    <rect class="st0" x="97.69" y="46.04" width="18" height="281.97"/>
  </g>
  <path class="st0" d="M190.67,520.95h-18v-33.74c.03-1.11.44-11.15,6.42-21.39,5.74-9.82,17.63-21.53,41.65-21.53h33.45s9.3.17,15.1-5.48c3.45-3.36,5.19-8.47,5.19-15.19v-35.96h18v35.96c0,11.87-3.64,21.37-10.81,28.26-10.84,10.41-25.47,10.48-28,10.41h-32.93c-12.19,0-20.87,4.07-25.81,12.1-3.72,6.05-4.22,12.43-4.27,13.24v33.32h0Z"/>
  <path class="st0" d="M218.96,406.2H89.39c-12.27,0-21.84-5.98-26.95-16.84-3.47-7.38-3.68-14.58-3.69-15.38v-31c0-12.19-4.07-20.87-12.1-25.81-6.05-3.72-12.43-4.22-13.24-4.27H.1v-18h33.74c1.11.03,11.15.44,21.39,6.42,9.82,5.74,21.53,17.63,21.53,41.65v30.76c.01.32.23,4.49,2.15,8.31,2.13,4.25,5.36,6.14,10.49,6.14h129.57v18.02Z"/>
  <path class="st0" d="M86.17,499.49h-45.92v-18h45.92c7.7,0,12.89-2.43,15.88-7.43,2.36-3.94,2.64-8.2,2.67-8.69v-6.9c0-36.18,18.76-53.48,34.5-61.61,16.57-8.57,33.07-8.67,33.76-8.67l.03,18c-.13,0-13.33.17-26.04,6.93-16.09,8.55-24.25,23.81-24.25,45.35v7.04c-.01.97-.22,8.86-4.68,16.87-6.15,11.03-17.46,17.11-31.86,17.11h0Z"/>
  <path class="st0" d="M394.33,520.95h-18v-33.34c-.04-.61-.5-7.08-4.27-13.21-4.94-8.03-13.62-12.1-25.81-12.1h-32.93c-2.53.07-17.16,0-28-10.41-7.17-6.88-10.81-16.39-10.81-28.26v-35.96h18v35.96c0,6.72,1.75,11.83,5.19,15.19,5.81,5.66,15.08,5.5,15.17,5.48h33.38c24.03,0,35.91,11.71,41.65,21.53,5.99,10.24,6.4,20.28,6.42,21.39v33.74h0Z"/>
  <path class="st0" d="M477.61,406.2h-129.57v-18h129.57c5.13,0,8.36-1.89,10.49-6.14,1.88-3.76,2.13-7.84,2.15-8.35v-30.73c0-24.03,11.71-35.91,21.53-41.65,10.24-5.99,20.28-6.4,21.39-6.42h33.74v18h-33.34c-.62.04-7.08.5-13.21,4.27-8.03,4.94-12.1,13.62-12.1,25.81v31c-.01.8-.21,7.99-3.69,15.38-5.11,10.86-14.68,16.84-26.95,16.84h0Z"/>
  <path class="st0" d="M526.75,499.49h-45.92c-14.4,0-25.72-6.08-31.86-17.11-4.46-8.01-4.67-15.9-4.68-16.77v-7.14c0-21.55-8.16-36.81-24.25-45.35-12.71-6.75-25.91-6.92-26.04-6.93l.03-18c.69,0,17.19.1,33.76,8.67,15.74,8.14,34.5,25.43,34.5,61.61v6.9c.03.49.31,4.75,2.67,8.69,2.99,5,8.18,7.43,15.88,7.43h45.92v18h-.01Z"/>
</svg>